<svg width="100" height="100" viewBox="0 0 128 128" xmlns="http://www.w3.org/2000/svg" xmlns:xlink="http://www.w3.org/1999/xlink"><linearGradient id="a" gradientUnits="userSpaceOnUse" x1="115.349" x2="12.651" y1="115.349" y2="12.651"><stop offset="0" stop-color="#4bb9ec"/><stop offset="1" stop-color="#7fe881"/></linearGradient><path d="m98.663 0h-69.327a9.761 9.761 0 0 0 -9.75 9.75v108.503a9.761 9.761 0 0 0 9.75 9.75 1.75 1.75 0 0 0 0-3.5 6.257 6.257 0 0 1 -6.25-6.25v-108.506a6.257 6.257 0 0 1 6.25-6.25h14.172l3.547 8.283a1.749 1.749 0 0 0 1.609 1.062h30.673a1.747 1.747 0 0 0 1.608-1.062l3.547-8.28h14.171a6.257 6.257 0 0 1 6.25 6.25v108.503a6.257 6.257 0 0 1 -6.25 6.25h-56.851a1.75 1.75 0 0 0 0 3.5h56.851a9.761 9.761 0 0 0 9.75-9.75v-108.506a9.761 9.761 0 0 0 -9.75-9.747zm-20.48 9.342h-28.365l-2.502-5.842h33.368zm22.23 18.1a1.75 1.75 0 1 1 -3.5 0v-6.421h-65.827v79.958h65.827v-45.794a1.75 1.75 0 0 1 3.5 0v47.544a1.749 1.749 0 0 1 -1.75 1.75h-69.327a1.75 1.75 0 0 1 -1.75-1.75v-83.458a1.75 1.75 0 0 1 1.75-1.75h69.327a1.749 1.749 0 0 1 1.75 1.75zm0 11.532v4.682a1.75 1.75 0 0 1 -3.5 0v-4.686a1.75 1.75 0 1 1 3.5 0zm-43.977 75.569a7.564 7.564 0 1 0 7.564-7.564 7.572 7.572 0 0 0 -7.564 7.564zm11.627 0a4.064 4.064 0 1 1 -4.063-4.064 4.068 4.068 0 0 1 4.063 4.064z" fill="url(#a)"/></svg>